<svg width="15" height="14" viewBox="0 0 15 14" fill="none" xmlns="http://www.w3.org/2000/svg">
<rect x="0.24707" width="14" height="14" rx="3" fill="#F6FAFB"/>
<path fill-rule="evenodd" clip-rule="evenodd" d="M10.6194 3.6278C10.6601 3.66844 10.6925 3.71672 10.7145 3.76987C10.7366 3.82302 10.7479 3.88 10.7479 3.93755C10.7479 3.9951 10.7366 4.05208 10.7145 4.10523C10.6925 4.15838 10.6601 4.20666 10.6194 4.2473L4.49438 10.3723C4.41223 10.4545 4.30081 10.5006 4.18463 10.5006C4.06846 10.5006 3.95704 10.4545 3.87488 10.3723C3.79273 10.2901 3.74658 10.1787 3.74658 10.0625C3.74658 9.94637 3.79273 9.83495 3.87488 9.7528L9.99988 3.6278C10.0405 3.58706 10.0888 3.55473 10.142 3.53268C10.1951 3.51062 10.2521 3.49927 10.3096 3.49927C10.3672 3.49927 10.4242 3.51062 10.4773 3.53268C10.5305 3.55473 10.5787 3.58706 10.6194 3.6278Z" fill="#31353E"/>
<path fill-rule="evenodd" clip-rule="evenodd" d="M3.87487 3.6278C3.83413 3.66844 3.8018 3.71672 3.77975 3.76987C3.75769 3.82302 3.74634 3.88 3.74634 3.93755C3.74634 3.9951 3.75769 4.05208 3.77975 4.10523C3.8018 4.15838 3.83413 4.20666 3.87487 4.2473L9.99987 10.3723C10.082 10.4545 10.1934 10.5006 10.3096 10.5006C10.4258 10.5006 10.5372 10.4545 10.6194 10.3723C10.7015 10.2901 10.7477 10.1787 10.7477 10.0625C10.7477 9.94637 10.7015 9.83495 10.6194 9.7528L4.49437 3.6278C4.45373 3.58706 4.40545 3.55473 4.3523 3.53268C4.29915 3.51062 4.24217 3.49927 4.18462 3.49927C4.12707 3.49927 4.07009 3.51062 4.01694 3.53268C3.96379 3.55473 3.91551 3.58706 3.87487 3.6278Z" fill="#31353E"/>
</svg>
