<svg width="33" height="33" viewBox="0 0 33 33" fill="none" xmlns="http://www.w3.org/2000/svg">
<path d="M30.2935 16.9492L2.896 2.75195L5.88442 13.2132L14.1039 16.9492L5.88442 20.4363L2.896 30.1503L30.2935 16.9492Z" fill="#00B8E5"/>
<path d="M32.2705 15.9667L1.44694 0.512609C1.32165 0.449967 1.17794 0.435228 1.04161 0.468391C0.728396 0.545773 0.5331 0.862667 0.610481 1.17956L3.7868 14.1575C3.8347 14.3528 3.97841 14.5112 4.17002 14.5739L9.6125 16.4421L4.1737 18.3103C3.98209 18.3766 3.83838 18.5314 3.79417 18.7267L0.610481 31.723C0.577318 31.8594 0.592057 32.0031 0.654699 32.1247C0.798407 32.4158 1.15215 32.5337 1.44694 32.39L32.2705 17.0243C32.3847 16.969 32.4768 16.8732 32.5358 16.7627C32.6795 16.4679 32.5616 16.1141 32.2705 15.9667ZM4.24371 28.0309L6.09718 20.4549L16.9748 16.7221C17.0595 16.6927 17.1295 16.6263 17.159 16.5379C17.2106 16.3831 17.1295 16.2173 16.9748 16.162L6.09718 12.433L4.25108 4.88649L27.3918 16.49L4.24371 28.0309V28.0309Z" fill="#00A3E3"/>
</svg>
