<svg width="14" height="17" viewBox="0 0 14 17" fill="none" xmlns="http://www.w3.org/2000/svg">
<path d="M6.9679 0.00805664C4.72783 0.00805664 2.9054 1.83049 2.9054 4.07056V6.50806H2.0929C1.19671 6.50806 0.467896 7.23687 0.467896 8.13306V14.6331C0.467896 15.5292 1.19671 16.2581 2.0929 16.2581H11.8429C12.7391 16.2581 13.4679 15.5292 13.4679 14.6331V8.13306C13.4679 7.23687 12.7391 6.50806 11.8429 6.50806H11.0304V4.07056C11.0304 1.83049 9.20796 0.00805664 6.9679 0.00805664ZM11.8429 8.13306L11.8445 14.6331H2.0929V8.13306H11.8429ZM4.5304 6.50806V4.07056C4.5304 2.72668 5.62402 1.63306 6.9679 1.63306C8.31177 1.63306 9.4054 2.72668 9.4054 4.07056V6.50806H4.5304Z" fill="#8DC1D0"/>
</svg>
